{"title":"Marvel's Agents of S H I E L D S03E06 Among Us Hide 720P WEB-DL","uid":12692673,"size":1422316280,"categoryP":"video","categoryS":"hd___tv_shows","magnet":"?xt=urn:btih:81f3a363e0e48553668d3c02ad02c53770ea0ef4&amp;dn=Marvel%27s+Agents+of+S+H+I+E+L+D+S03E06+Among+Us+Hide+720P+WEB-DL+&amp;tr=udp%3A%2F%2Ftracker.leechers-paradise.org%3A6969&amp;tr=udp%3A%2F%2Fzer0day.ch%3A1337&amp;tr=udp%3A%2F%2Fopen.demonii.com%3A1337&amp;tr=udp%3A%2F%2Ftracker.coppersurfer.tk%3A6969&amp;tr=udp%3A%2F%2Fexodus.desync.com%3A6969","seeders":1,"leechers":0,"uploader":"jmanwf","files":2,"time":1446697659,"description":"The stakes get even higher as Hunter and May continue to go after Ward and Hydra, and Daisy and Coulson begin to suspect that the ATCU may be keeping a big secret from S.H.I.E.L.D., on &quot;Marvel's Agents of S.H.I.E.L.D.&quot;\r\n\r\n\r\n\r\n\r\nVideo\r\nID : 2\r\nFormat : AVC\r\nFormat/Info : Advanced Video Codec\r\nFormat profile :   \r\nFormat settings, CABAC : No\r\nFormat settings, ReFrames : 2 frames\r\nFormat settings, GOP : M=2, N=90\r\nCodec ID : avc1\r\nCodec ID/Info : Advanced Video Coding\r\nDuration : 42mn 55s\r\nBit rate : 3 904 Kbps\r\nWidth : 1 280 pixels\r\nHeight : 720 pixels\r\nDisplay aspect ratio : 16:9\r\nFrame rate mode : Constant\r\nFrame rate : 23.976 fps\r\nColor space : YUV\r\nChroma subsampling : 4:2:0\r\nBit depth : 8 bits\r\nScan type : Progressive\r\nBits/(Pixel*Frame) : 0.177\r\nStream size : 1.17 GiB (88%)\r\nLanguage : English\r\nEncoded date : UTC 2015-11-04 10:48:14\r\nTagged date : UTC 2015-11-04 10:51:03\r\nColor range : Limited\r\nColor primaries : BT.709\r\nTransfer characteristics : BT.709\r\nMatrix coefficients : BT.709\r\n\r\nAudio #1\r\nID : 1\r\nFormat : AAC\r\nFormat/Info : Advanced Audio Codec\r\nFormat profile : LC\r\nCodec ID : 40\r\nDuration : 42mn 55s\r\nBit rate mode : Variable\r\nBit rate : 125 Kbps\r\nMaximum bit rate : 204 Kbps\r\nChannel(s) : 2 channels\r\nChannel positions : Front: L R\r\nSampling rate : 48.0 KHz\r\nCompression mode : Lossy\r\nStream size : 38.4 MiB (3%)\r\nLanguage : English\r\nEncoded date : UTC 2015-11-04 10:48:14\r\nTagged date : UTC 2015-11-04 10:51:03\r\n\r\nAudio #2\r\nID : 3\r\nFormat : AC-3\r\nFormat/Info : Audio Coding 3\r\nMode extension : CM (complete main)\r\nFormat settings, Endianness : Big\r\nCodec ID : ac-3\r\nDuration : 42mn 55s\r\nBit rate mode : Constant\r\nBit rate : 384 Kbps\r\nChannel(s) : 6 channels\r\nChannel positions : Front: L C R, Side: L R, LFE\r\nSampling rate : 48.0 KHz\r\nBit depth : 16 bits\r\nCompression mode : Lossy\r\nStream size : 118 MiB (9%)\r\nLanguage : English\r\nEncoded date : UTC 2015-11-04 10:48:14\r\nTagged date : UTC 2015-11-04 10:51:03\r\n\r\nText\r\nID : 4-CC1\r\nFormat : EIA-608\r\nMuxing mode : Final Cut\r\nCodec ID : c608\r\nDuration : 42mn 9s\r\nBit rate mode : Constant\r\nStream size : 0.00 Byte (0%)\r\nLanguage : English\r\nEncoded date : UTC 2015-11-04 10:48:14\r\nTagged date : UTC 2015-11-04 10:48:19\r\n\r\n\r\n\r\n \nhttps://itunes.apple.com/us/tv-season/marvels-agents-s.h.i.e.l.d./id1030602281","torrent":{"xt":"urn:btih:81f3a363e0e48553668d3c02ad02c53770ea0ef4","amp;dn":"Marvel%27s+Agents+of+S+H+I+E+L+D+S03E06+Among+Us+Hide+720P+WEB-DL+","amp;tr":["udp%3A%2F%2Ftracker.leechers-paradise.org%3A6969","udp%3A%2F%2Fzer0day.ch%3A1337","udp%3A%2F%2Fopen.demonii.com%3A1337","udp%3A%2F%2Ftracker.coppersurfer.tk%3A6969","udp%3A%2F%2Fexodus.desync.com%3A6969"],"infoHash":"81f3a363e0e48553668d3c02ad02c53770ea0ef4","infoHashBuffer":{"type":"Buffer","data":[129,243,163,99,224,228,133,83,102,141,60,2,173,2,197,55,112,234,14,244]},"announce":[],"urlList":[]}}